<?xml version="1.0" encoding="UTF-8"?>
<svg version="1.1" xmlns="http://www.w3.org/2000/svg"
 width="30px" height="30px" viewBox="0 0 60 60"
 preserveAspectRatio="xMidYMid meet">

<g transform="translate(0,60) scale(0.1,-0.1)"
fill="#000" stroke="none">
<path d="M205 583 c-211 -76 -272 -336 -115 -493 61 -61 119 -85 210 -85 91 0
149 24 210 85 61 61 85 119 85 210 0 91 -24 149 -85 210 -80 80 -203 109 -305
73z m57 -220 l38 -37 40 39 c31 30 43 36 52 27 9 -9 3 -21 -27 -52 l-39 -40
39 -40 c30 -31 36 -43 27 -52 -9 -9 -21 -3 -52 27 l-40 39 -40 -39 c-31 -30
-43 -36 -52 -27 -9 9 -3 21 27 52 l39 40 -38 39 c-21 22 -35 44 -32 50 11 17
17 14 58 -26z"/>
</g>
</svg>
